<svg width="8" height="8" viewBox="0 0 8 8" fill="none" xmlns="http://www.w3.org/2000/svg">
<path d="M7.68 0.72H6V0.08C6 0.036 5.964 0 5.92 0H5.36C5.316 0 5.28 0.036 5.28 0.08V0.72H2.72V0.08C2.72 0.036 2.684 0 2.64 0H2.08C2.036 0 2 0.036 2 0.08V0.72H0.32C0.143 0.72 0 0.863 0 1.04V7.68C0 7.857 0.143 8 0.32 8H7.68C7.857 8 8 7.857 8 7.68V1.04C8 0.863 7.857 0.72 7.68 0.72ZM7.28 7.28H0.72V3.48H7.28V7.28ZM0.72 2.8V1.44H2V1.92C2 1.964 2.036 2 2.08 2H2.64C2.684 2 2.72 1.964 2.72 1.92V1.44H5.28V1.92C5.28 1.964 5.316 2 5.36 2H5.92C5.964 2 6 1.964 6 1.92V1.44H7.28V2.8H0.72Z" fill="#BFBFBF"/>
</svg>
