<svg width="19" height="24" viewBox="0 0 19 24" fill="none" xmlns="http://www.w3.org/2000/svg">
<path fill-rule="evenodd" clip-rule="evenodd" d="M10.0193 0.388403C9.87475 0.147439 9.61434 0 9.33333 0C9.05232 0 8.79192 0.147439 8.64734 0.388403C7.54697 2.22235 6.21702 3.62568 4.88667 5.02943C4.34079 5.60543 3.79479 6.18156 3.26461 6.78748C1.47247 8.83564 0 11.1129 0 14.5143C0 19.7397 4.16539 24 9.33333 24C14.5013 24 18.6667 19.7397 18.6667 14.5143C18.6667 11.1129 17.1942 8.83564 15.4021 6.78748C14.8719 6.18154 14.3259 5.60545 13.78 5.02944C12.4496 3.62568 11.1197 2.22235 10.0193 0.388403ZM15.3667 12.2667C15.3667 11.4382 14.6951 10.7667 13.8667 10.7667C13.0382 10.7667 12.3667 11.4382 12.3667 12.2667C12.3667 14.191 11.9666 15.4482 11.5487 16.2171C11.3385 16.6039 11.1228 16.8695 10.9465 17.0407C10.8583 17.1265 10.7827 17.1858 10.7259 17.2245C10.6751 17.259 10.6463 17.2723 10.6427 17.274C9.87355 17.5817 9.49962 18.4546 9.80729 19.2238C10.115 19.9929 10.9879 20.3671 11.7571 20.0594C13.4177 19.3951 15.3667 16.8951 15.3667 12.2667Z" fill="#001529"/>
</svg>
