<svg width="32" height="32" viewBox="0 0 32 32" fill="none" xmlns="http://www.w3.org/2000/svg">
<rect width="32" height="32" fill="#001529"/>
<path fill-rule="evenodd" clip-rule="evenodd" d="M17.0193 4.3884C16.8747 4.14744 16.6143 4 16.3333 4C16.0523 4 15.7919 4.14744 15.6473 4.3884C14.547 6.22235 13.217 7.62568 11.8867 9.02943C11.3408 9.60543 10.7948 10.1816 10.2646 10.7875C8.47247 12.8356 7 15.1129 7 18.5143C7 23.7397 11.1654 28 16.3333 28C21.5013 28 25.6667 23.7397 25.6667 18.5143C25.6667 15.1129 24.1942 12.8356 22.4021 10.7875C21.8719 10.1815 21.3259 9.60545 20.78 9.02944C19.4496 7.62568 18.1197 6.22235 17.0193 4.3884ZM22.3667 16.2667C22.3667 15.4382 21.6951 14.7667 20.8667 14.7667C20.0382 14.7667 19.3667 15.4382 19.3667 16.2667C19.3667 18.191 18.9666 19.4482 18.5487 20.2171C18.3385 20.6039 18.1228 20.8695 17.9465 21.0407C17.8583 21.1265 17.7827 21.1858 17.7259 21.2245C17.6751 21.259 17.6463 21.2723 17.6427 21.274C16.8736 21.5817 16.4996 22.4546 16.8073 23.2238C17.115 23.9929 17.9879 24.3671 18.7571 24.0594C20.4177 23.3951 22.3667 20.8951 22.3667 16.2667Z" fill="white"/>
</svg>
